<svg width="200" height="232" viewBox="0 0 200 232" fill="none" xmlns="http://www.w3.org/2000/svg">
  <path fill="#2C2C2C" d="M26.0328 49.4098C24.8067 49.4098 23.6308 49.8969 22.7639 50.7639C21.8969 51.6308 21.4098 52.8067 21.4098 54.0328V177.311C21.4098 179.863 23.4809 181.934 26.0328 181.934H173.967C175.193 181.934 176.369 181.447 177.236 180.58C178.103 179.713 178.59 178.538 178.59 177.311V54.0328C178.59 52.8067 178.103 51.6308 177.236 50.7639C176.369 49.8969 175.193 49.4098 173.967 49.4098H26.0328ZM26.0328 34H173.967C185.025 34 194 42.9747 194 54.0328V177.311C194 188.37 185.025 197.344 173.967 197.344H26.0328C23.402 197.344 20.7971 196.826 18.3666 195.819C15.9361 194.813 13.7277 193.337 11.8675 191.477C8.11059 187.72 6 182.624 6 177.311V54.0328C6 42.9747 14.9747 34 26.0328 34Z"/>
  <path fill="#2C2C2C" d="M173.967 181.934C175.193 181.934 176.369 181.447 177.236 180.58C178.103 179.713 178.59 178.538 178.59 177.311V143.237C178.59 136.827 174.966 130.946 169.221 128.074L146.673 116.806C143.943 115.441 140.895 114.838 137.851 115.062C134.806 115.285 131.879 116.327 129.377 118.076L38.1511 181.934H173.967ZM176.112 114.291C181.488 116.979 186.008 121.111 189.168 126.223C192.327 131.336 194 137.227 194 143.237V177.311C194 188.37 185.025 197.344 173.967 197.344H29.349C26.6603 197.346 24.0413 196.49 21.8726 194.901C19.7039 193.311 18.0986 191.072 17.2901 188.508C16.4817 185.944 16.5122 183.188 17.3773 180.643C18.2423 178.097 19.8968 175.894 22.1002 174.353L120.538 105.452C125.314 102.111 130.904 100.121 136.717 99.6935C142.53 99.266 148.351 100.417 153.565 103.024L176.112 114.291Z"/>
  <path fill="#2C2C2C" d="M56.8524 97.1804C60.122 97.1804 63.2576 95.8816 65.5696 93.5696C67.8815 91.2577 69.1803 88.1221 69.1803 84.8525C69.1803 81.583 67.8815 78.4473 65.5696 76.1354C63.2576 73.8235 60.122 72.5247 56.8524 72.5247C53.5829 72.5247 50.4473 73.8235 48.1353 76.1354C45.8234 78.4473 44.5246 81.583 44.5246 84.8525C44.5246 88.1221 45.8234 91.2577 48.1353 93.5696C50.4473 95.8816 53.5829 97.1804 56.8524 97.1804Z"/>
</svg>
