<svg width="32" height="32" viewBox="0 0 32 32" fill="none" xmlns="http://www.w3.org/2000/svg">
<path d="M30.6138 7.25176C31.1287 7.76385 31.1287 8.59411 30.6138 9.1062L13.2812 26.3431C13.1995 26.4243 13.1098 26.4927 13.0147 26.5481C12.6176 26.8325 12.1302 27 11.6035 27C11.0173 27 10.4799 26.7925 10.0614 26.4473C10.0158 26.4126 9.97199 26.3745 9.93028 26.333L1.3862 17.8361C0.871266 17.324 0.871267 16.4937 1.3862 15.9816L3.17324 14.2045C3.68817 13.6924 4.52304 13.6924 5.03798 14.2045L11.5198 20.6505L26.871 5.38407C27.3859 4.87198 28.2208 4.87198 28.7357 5.38407L30.6138 7.25176Z" fill="white"/>
</svg>
