<svg width="32" height="32" viewBox="0 0 32 32" fill="none" xmlns="http://www.w3.org/2000/svg">
<path d="M28.6524 8.04705C29.1159 8.51259 29.1159 9.26737 28.6524 9.73291L13.053 25.4029C12.9796 25.4767 12.8989 25.5388 12.8132 25.5892C12.4558 25.8477 12.0172 26 11.5432 26C11.0156 26 10.5319 25.8114 10.1552 25.4976C10.1142 25.466 10.0748 25.4313 10.0373 25.3936L2.34758 17.6692C1.88414 17.2036 1.88414 16.4488 2.34758 15.9833L3.95592 14.3677C4.41936 13.9022 5.17074 13.9022 5.63418 14.3677L11.4678 20.2277L25.2839 6.34915C25.7473 5.88362 26.4987 5.88362 26.9622 6.34915L28.6524 8.04705Z" fill="white"/>
</svg>
