<svg width="547" height="403" viewBox="0 0 547 403" fill="none" xmlns="http://www.w3.org/2000/svg">
<path d="M539.017 41.2131C548.39 50.5857 548.39 65.7816 539.017 75.1542L223.536 390.635C222.05 392.121 220.418 393.372 218.685 394.386C211.458 399.591 202.587 402.657 193.001 402.657C182.331 402.657 172.548 398.86 164.931 392.542C164.101 391.906 163.304 391.208 162.545 390.449L7.02943 234.934C-2.34315 225.561 -2.34314 210.365 7.02944 200.993L39.5564 168.466C48.9289 159.093 64.1249 159.093 73.4975 168.466L191.477 286.445L470.893 7.02944C480.265 -2.34314 495.461 -2.34315 504.834 7.02943L539.017 41.2131Z" fill="#E1E1E1"/>
</svg>
